# xmcd
#
# Track frame offsets:
#	150
#	17724
#	35732
#	52061
#	72604
#	88356
#	102908
#	122864
#	141091
#	157492
#	178452
#
# Disc length: 2656 seconds
# Revision: 1
# Processed by: cddbd v1.5.2PL0 Copyright (c) Steve Scherf et al.
# Submitted via: dBpowerAMP V12.0
#
DISCID=b30a5e0b
DTITLE=Chris Cagle - Back In The Saddle
DYEAR=2012
DGENRE=Country
TTITLE0=Got My Country On
TTITLE1=I'll Grow My Own
TTITLE2=Something That Wild
TTITLE3=Let There Be Cowgirls
TTITLE4=Dance Baby Dance
TTITLE5=When Will My Lover Come Around
TTITLE6=Southern Girl
TTITLE7=Probably Just Time
TTITLE8=Thank God She Left The Whiskey
TTITLE9=Now I Know What Mama Meant
TTITLE10=Just Enough
EXTD=
EXTT0=
EXTT1=
EXTT2=
EXTT3=
EXTT4=
EXTT5=
EXTT6=
EXTT7=
EXTT8=
EXTT9=
EXTT10=
PLAYORDER=
